<?xml version="1.0" encoding="UTF-8" standalone="no"?>
<!DOCTYPE svg PUBLIC "-//W3C//DTD SVG 1.1//EN" "http://www.w3.org/Graphics/SVG/1.1/DTD/svg11.dtd">
<svg width="100%" height="100%" viewBox="0 0 1080 1080" version="1.1" xmlns="http://www.w3.org/2000/svg" xmlns:xlink="http://www.w3.org/1999/xlink" xml:space="preserve" xmlns:serif="http://www.serif.com/" style="fill-rule:evenodd;clip-rule:evenodd;stroke-linejoin:round;stroke-miterlimit:2;">
    <g transform="matrix(21.4213,0,0,21.4213,540,540)">
        <g transform="matrix(1,0,0,1,-24,-24)">
            <path d="M40,12C40,12 35.414,8.41 30,8L29.512,8.977C34.406,10.176 36.652,11.89 39,14C34.953,11.934 30.96,10 24,10C17.04,10 13.047,11.934 9,14C11.348,11.89 14.02,9.984 18.488,8.977L18,8C12.32,8.535 8,12 8,12C8,12 2.879,19.426 2,34C7.16,39.953 15,40 15,40L16.64,37.816C13.856,36.848 10.716,35.121 8,32C11.238,34.45 16.125,37 24,37C31.875,37 36.762,34.45 40,32C37.285,35.121 34.145,36.848 31.36,37.816L33,40C33,40 40.84,39.953 46,34C45.121,19.426 40,12 40,12ZM17.5,30C15.566,30 14,28.21 14,26C14,23.79 15.566,22 17.5,22C19.434,22 21,23.79 21,26C21,28.21 19.434,30 17.5,30ZM30.5,30C28.566,30 27,28.21 27,26C27,23.79 28.566,22 30.5,22C32.434,22 34,23.79 34,26C34,28.21 32.434,30 30.5,30Z" style="fill:rgb(203,152,72);fill-rule:nonzero;"/>
        </g>
    </g>
</svg>
